<svg width="16" height="16" viewBox="0 0 16 16" fill="none" xmlns="http://www.w3.org/2000/svg">
<path fill-rule="evenodd" clip-rule="evenodd" d="M7.99996 15.3334C3.94987 15.3334 0.666626 12.0502 0.666626 8.00008C0.666626 3.94999 3.94987 0.666748 7.99996 0.666748C12.05 0.666748 15.3333 3.94999 15.3333 8.00008C15.3333 12.0502 12.05 15.3334 7.99996 15.3334ZM7.99998 14C11.3137 14 14 11.3137 14 8.00004C14 4.68633 11.3137 2.00004 7.99998 2.00004C4.68627 2.00004 1.99998 4.68633 1.99998 8.00004C1.99998 11.3137 4.68627 14 7.99998 14ZM7.13803 4.86197L6.19522 5.80477L8.39048 8.00004L6.19522 10.1953L7.13803 11.1381L10.2761 8.00004L7.13803 4.86197Z" fill="white"/>
</svg>
