<svg width="131" height="15" viewBox="0 0 131 15" fill="none" xmlns="http://www.w3.org/2000/svg">
<path d="M0.617188 14V1.15039H3.3418V11.75H8.55371V14H0.617188Z" fill="white"/>
<path d="M49.2822 7.55762C49.2822 9.68457 48.7549 11.3193 47.7002 12.4619C46.6455 13.6045 45.1338 14.1758 43.165 14.1758C41.1963 14.1758 39.6846 13.6045 38.6299 12.4619C37.5752 11.3193 37.0478 9.67871 37.0478 7.54004C37.0478 5.40137 37.5752 3.76953 38.6299 2.64453C39.6904 1.51367 41.208 0.948242 43.1826 0.948242C45.1572 0.948242 46.666 1.5166 47.709 2.65332C48.7578 3.79004 49.2822 5.42481 49.2822 7.55762ZM39.9043 7.55762C39.9043 8.99317 40.1768 10.0742 40.7217 10.8008C41.2666 11.5273 42.0811 11.8906 43.165 11.8906C45.3389 11.8906 46.4258 10.4463 46.4258 7.55762C46.4258 4.66309 45.3447 3.21582 43.1826 3.21582C42.0986 3.21582 41.2812 3.58203 40.7305 4.31445C40.1797 5.04102 39.9043 6.12207 39.9043 7.55762Z" fill="white"/>
<path d="M83.8232 6.78418H88.9209V13.4463C88.0947 13.7158 87.3154 13.9033 86.583 14.0088C85.8564 14.1201 85.1123 14.1758 84.3506 14.1758C82.4111 14.1758 80.9287 13.6074 79.9033 12.4707C78.8838 11.3281 78.374 9.69043 78.374 7.55762C78.374 5.4834 78.9658 3.86621 80.1494 2.70605C81.3389 1.5459 82.9853 0.96582 85.0889 0.96582C86.4072 0.96582 87.6787 1.22949 88.9033 1.75684L87.998 3.93652C87.0605 3.46777 86.085 3.2334 85.0713 3.2334C83.8935 3.2334 82.9502 3.62891 82.2412 4.41992C81.5322 5.21094 81.1777 6.27441 81.1777 7.61035C81.1777 9.00488 81.4619 10.0713 82.0303 10.8096C82.6045 11.542 83.4365 11.9082 84.5264 11.9082C85.0947 11.9082 85.6719 11.8496 86.2578 11.7324V9.05176H83.8232V6.78418Z" fill="white"/>
<path d="M130.651 7.55762C130.651 9.68457 130.124 11.3193 129.069 12.4619C128.015 13.6045 126.503 14.1758 124.534 14.1758C122.565 14.1758 121.054 13.6045 119.999 12.4619C118.944 11.3193 118.417 9.67871 118.417 7.54004C118.417 5.40137 118.944 3.76953 119.999 2.64453C121.06 1.51367 122.577 0.948242 124.552 0.948242C126.526 0.948242 128.035 1.5166 129.078 2.65332C130.127 3.79004 130.651 5.42481 130.651 7.55762ZM121.273 7.55762C121.273 8.99317 121.546 10.0742 122.091 10.8008C122.636 11.5273 123.45 11.8906 124.534 11.8906C126.708 11.8906 127.795 10.4463 127.795 7.55762C127.795 4.66309 126.714 3.21582 124.552 3.21582C123.468 3.21582 122.65 3.58203 122.1 4.31445C121.549 5.04102 121.273 6.12207 121.273 7.55762Z" fill="white"/>
</svg>
